<svg width="399" height="91" viewBox="0 0 399 91" fill="none" xmlns="http://www.w3.org/2000/svg">
<path d="M60.0938 14.2656C59.375 14.0156 58.4844 13.875 57.4219 13.8438C52.6094 13.8438 45.5938 16.4375 36.375 21.625C31.9688 24.125 27.2812 27.5156 22.3125 31.7969C17.3438 36.0469 13.4531 40.0469 10.6406 43.7969C8.73438 46.3594 7.125 49.2188 5.8125 52.375C4.5 55.5 3.84375 58.0156 3.84375 59.9219C3.84375 60.8906 4.03125 61.5625 4.40625 61.9375C4.71875 62.25 5.26562 62.4219 6.04688 62.4531C7.76562 62.4531 10.4531 61.5156 14.1094 59.6406C18.8594 57.2656 23.5938 54.2656 28.3125 50.6406C33.0625 46.9844 40.3594 40.7812 50.2031 32.0312C54.6719 28.0625 58.8281 24.7344 62.6719 22.0469L65.3906 20.0312L64.4062 18.2969C63.25 16.2344 61.8125 14.8906 60.0938 14.2656ZM53.5781 11.4531C53.7656 11.3906 54.6562 11.3594 56.25 11.3594C58.3125 11.3594 60.2656 11.9688 62.1094 13.1875C63.9531 14.4062 65.2969 15.9687 66.1406 17.875L66.7031 19.2344L71.0625 16.6562L72.0938 17.6875C72.5312 18.125 72.75 18.4531 72.75 18.6719C72.75 19.0469 72.3125 19.5781 71.4375 20.2656C70.5938 20.9219 68.4844 22.5 65.1094 25C54.6094 32.8125 46.6406 40.2031 41.2031 47.1719C34.6719 55.6094 31.4062 61.1094 31.4062 63.6719C31.4062 64.5156 31.7812 64.9375 32.5312 64.9375C35.7188 64.9375 45.8594 58.6406 62.9531 46.0469C67.5469 42.7969 71.0156 40.2656 73.3594 38.4531C75.2656 36.9844 76.4375 36.25 76.875 36.25C77.125 36.25 77.2656 36.4688 77.2969 36.9062C77.2969 37.5312 76.75 38.3281 75.6562 39.2969C73.1562 41.6719 68.2969 45.4844 61.0781 50.7344C53.8906 55.9844 48.0938 59.9531 43.6875 62.6406C38.5 65.7656 34.9531 67.3281 33.0469 67.3281C31.8281 67.3281 30.6719 66.7812 29.5781 65.6875C28.6719 64.7812 28.2188 63.7656 28.2188 62.6406C28.2188 61.5469 28.6094 60.2344 29.3906 58.7031C30.1094 57.2969 31.125 55.5625 32.4375 53.5C33.7812 51.4062 34.6094 50.2656 34.9219 50.0781C35.1719 49.9531 35.3125 49.7188 35.3438 49.375C35.3438 49.3125 35.1406 49.3906 34.7344 49.6094C34.3594 49.8281 33.8438 50.1719 33.1875 50.6406C32.5625 51.0781 31.9062 51.5938 31.2188 52.1875C26.1562 56.0312 21.375 59.1094 16.875 61.4219C12.4062 63.7031 9.01562 64.8438 6.70312 64.8438C6.32812 64.8438 6.04688 64.8125 5.85938 64.75C4.32812 64.4375 2.98438 63.7031 1.82812 62.5469C0.671875 61.3906 0.09375 60.1719 0.09375 58.8906C0.09375 57.3594 1.04687 54.6406 2.95312 50.7344C4.89062 46.8281 6.875 43.5312 8.90625 40.8438C13.4375 35.0312 19.5938 29.4062 27.375 23.9688C35.1875 18.5 42.5156 14.75 49.3594 12.7188C49.9219 12.5312 50.5469 12.3438 51.2344 12.1562C51.9531 11.9375 52.5 11.7656 52.875 11.6406C53.2812 11.5156 53.5156 11.4531 53.5781 11.4531ZM82.0312 37.75C81.25 37.625 80.7969 37.5625 80.6719 37.5625C80.1719 37.5625 79.5312 37.7344 78.75 38.0781C76.5 38.9219 73.75 41 70.5 44.3125C67.0938 47.8438 65.4062 49.8906 65.4375 50.4531C65.4375 50.6406 65.5625 50.7344 65.8125 50.7344C66.3125 50.7344 67.0469 50.4688 68.0156 49.9375C69.6719 49.0938 72.5781 47.0781 76.7344 43.8906C80.8906 40.7031 82.9688 38.8906 82.9688 38.4531C82.9688 38.2344 82.6562 38 82.0312 37.75ZM111.891 13C112.734 12.0938 113.344 11.4219 113.719 10.9844C114.094 10.5469 114.25 10.3281 114.188 10.3281C113.938 10.3281 112.562 11.5156 110.062 13.8906C107.562 16.2344 105.938 17.8906 105.188 18.8594L104.859 19.2344C104.859 19.3594 105.234 19.125 105.984 18.5312C106.734 17.9063 107.656 17.0781 108.75 16.0469C109.875 14.9844 110.922 13.9688 111.891 13ZM116.297 3.67188C118.859 1.35938 120.234 0.21875 120.422 0.25H120.516C120.953 0.25 121.438 0.609375 121.969 1.32812C122.531 2.01563 122.812 2.60937 122.812 3.10938C122.812 3.82812 122.109 5.23437 120.703 7.32812C117.516 12.1406 109.969 19.5625 98.0625 29.5938L90.2812 36.1562L87 41.5938C81.25 51.125 78.375 58.1406 78.375 62.6406C78.375 64.1094 78.6875 65.1719 79.3125 65.8281C79.9688 66.4531 80.4844 66.8281 80.8594 66.9531C81.3594 67.1406 81.2969 67.4531 80.6719 67.8906C80.1719 68.3281 79.5 68.2969 78.6562 67.7969C77.625 67.2344 76.9219 66.5781 76.5469 65.8281C76.1719 65.0469 75.9844 63.8906 75.9844 62.3594V61C76.0469 58.5 76.75 55.7812 78.0938 52.8438C79.5 49.6562 80.6406 47.2969 81.5156 45.7656C82.4219 44.2031 82.875 43.2656 82.875 42.9531C82.8125 42.8906 82.4219 43.1094 81.7031 43.6094C81.0156 44.0781 80.1719 44.7188 79.1719 45.5312C73.1406 50.4688 68.9375 53.25 66.5625 53.875C66 54.0625 65.5312 54.1719 65.1562 54.2031C64.4375 54.2031 63.625 53.6562 62.7188 52.5625C62.3438 52.125 62.1562 51.7344 62.1562 51.3906C62.1562 51.0156 62.375 50.2812 62.8125 49.1875C63.125 48.2188 63.6562 47.2969 64.4062 46.4219C65.1562 45.5156 66.6094 44 68.7656 41.875C71.4531 39.25 73.5156 37.4688 74.9531 36.5312C76.4219 35.5625 77.8281 35.0781 79.1719 35.0781C79.2344 35.0781 79.3906 35.0938 79.6406 35.125C79.8906 35.1562 80.0781 35.1719 80.2031 35.1719C81.6719 35.3594 82.7031 35.8125 83.2969 36.5312L84.2344 37.5625L85.4062 36.625C88.1562 34.25 90.7188 31.4688 93.0938 28.2812C98.9688 20.3125 106.703 12.1094 116.297 3.67188ZM106.969 32.7812L109.078 30.4844L109.875 31.4219C110.375 32.0469 110.625 32.4375 110.625 32.5938C110.625 32.7812 109.766 33.8594 108.047 35.8281C102.484 42.1094 99.0312 47.2656 97.6875 51.2969C97.1875 52.6406 96.9219 53.8594 96.8906 54.9531C96.8906 55.7344 97.125 56.125 97.5938 56.125C98.0938 56.125 99.375 55.5312 101.438 54.3438C103.531 53.1562 105.609 51.8281 107.672 50.3594C109.984 48.7031 111.391 47.8594 111.891 47.8281C112.141 47.8281 112.266 48.0625 112.266 48.5312C112.266 49.625 110.125 51.7031 105.844 54.7656C102.062 57.5781 99.2812 58.9844 97.5 58.9844C97.4375 58.9844 97.3438 58.9688 97.2188 58.9375C97.125 58.9062 97.0469 58.8906 96.9844 58.8906C95.2031 58.3906 94.3125 56.7188 94.3125 53.875C94.3125 52.5938 94.5625 51.25 95.0625 49.8438C95.8438 47.7812 97.375 45.0938 99.6562 41.7812C101.969 38.4688 104.406 35.4688 106.969 32.7812ZM118.125 22.7969C118.906 23.5156 119.188 24.1875 118.969 24.8125C118.969 25 118.875 25.0938 118.688 25.0938C118.375 25.0938 118.016 24.8594 117.609 24.3906C117.234 23.8906 117.047 23.4531 117.047 23.0781C117.047 22.2656 117.406 22.1719 118.125 22.7969ZM148.406 10.5156C154.5 4.42188 157.672 1.375 157.922 1.375C158.172 1.375 158.469 1.5625 158.812 1.9375C159.156 2.28125 159.328 2.60937 159.328 2.92188C159.328 3.17187 155.969 6.71875 149.25 13.5625C139.469 23.4062 131.797 31.9844 126.234 39.2969C123.547 42.8281 121.141 46.5 119.016 50.3125C116.922 54.125 115.75 56.9219 115.5 58.7031L115.266 60.625L116.625 60.4375C118.531 60 123.844 56.1562 132.562 48.9062C137.938 44.5 142.234 41.4531 145.453 39.7656C146.609 39.2031 147.438 38.9219 147.938 38.9219C148.562 38.9219 148.875 39.2656 148.875 39.9531C148.875 40.5156 148.359 41.0312 147.328 41.5C144.453 42.9062 138.984 46.9375 130.922 53.5938C126.516 57.3125 123.328 59.8281 121.359 61.1406C119.422 62.4531 117.875 63.1094 116.719 63.1094C116.156 63.1094 115.609 62.9844 115.078 62.7344C113.359 61.8906 112.5 60.6719 112.5 59.0781C112.5 59.0156 112.516 58.8594 112.547 58.6094C112.578 58.3594 112.594 58.1719 112.594 58.0469C112.781 56.4531 113.75 53.9688 115.5 50.5938C117.281 47.2188 119.219 44.0938 121.312 41.2188C127.906 32.4062 136.938 22.1719 148.406 10.5156ZM175.547 56.2188C175.547 56.0312 175.453 55.9219 175.266 55.8906C174.641 55.8906 173.484 56.4688 171.797 57.625C170.141 58.7812 168.797 59.9375 167.766 61.0938C166.672 62.375 165.906 63.5 165.469 64.4688C164.625 66.125 164.203 67.5625 164.203 68.7812C164.203 68.9688 164.234 69.0625 164.297 69.0625C164.797 69.0625 165.656 68.6406 166.875 67.7969C168.094 66.9219 169.188 65.9688 170.156 64.9375C171.125 63.9688 172.266 62.4062 173.578 60.25C174.891 58.0625 175.547 56.7188 175.547 56.2188ZM148.734 42.6719C151.359 40.1094 152.672 38.7031 152.672 38.4531C152.672 38.3906 152.641 38.3594 152.578 38.3594C151.047 38.3594 148.078 40.5625 143.672 44.9688C140.016 48.625 138.188 50.8281 138.188 51.5781C138.188 51.7031 138.25 51.7656 138.375 51.7656C138.875 51.7969 142.328 48.7656 148.734 42.6719ZM201.938 25.6562C201.938 25.1562 201.484 24.9062 200.578 24.9062C199.703 24.9062 198.688 25.125 197.531 25.5625C196.438 25.9375 194.938 27.0312 193.031 28.8438C191.156 30.625 189.844 32.2188 189.094 33.625L188.016 35.5469L190.969 33.9062C198.25 29.8125 201.906 27.0625 201.938 25.6562ZM195.984 23.5469C197.828 22.7031 199.172 22.2969 200.016 22.3281C201.047 22.3281 201.938 22.7656 202.688 23.6406C203.469 24.5469 203.859 25.4219 203.859 26.2656C203.859 27.4844 202.984 28.8125 201.234 30.25C199.516 31.6875 196.578 33.5156 192.422 35.7344C188.828 37.6406 186.875 38.7344 186.562 39.0156C185.594 39.6406 184.094 42.4531 182.062 47.4531C181.438 49.1719 181.125 50.1719 181.125 50.4531C181.125 50.7656 181.344 50.9219 181.781 50.9219C181.969 50.9219 182.203 50.8906 182.484 50.8281C182.766 50.7656 183.172 50.6875 183.703 50.5938C184.266 50.5 184.781 50.4219 185.25 50.3594C187.094 49.9844 190.094 49.4688 194.25 48.8125C199.375 47.9688 203.922 46.9375 207.891 45.7188C211.859 44.5 213.844 43.4844 213.844 42.6719C213.844 42.0469 214.062 41.9531 214.5 42.3906C214.875 42.7031 215.078 43.1094 215.109 43.6094C215.109 44.8906 214.078 46.0156 212.016 46.9844C208.234 48.6406 201.359 50.2344 191.391 51.7656C185.953 52.6094 182.562 53.25 181.219 53.6875C180.188 54 179.516 54.3438 179.203 54.7188C178.922 55.0625 178.312 56.2344 177.375 58.2344C175.781 61.7656 173.906 64.6875 171.75 67C169.594 69.2812 167.531 70.6094 165.562 70.9844C165.5 70.9844 165.406 71 165.281 71.0312C165.156 71.0625 165.047 71.0781 164.953 71.0781C164.109 71.0781 163.422 70.7344 162.891 70.0469C162.359 69.3281 162.094 68.4531 162.094 67.4219C162.094 65.3594 163.203 63 165.422 60.3438C167.672 57.6562 170.203 55.6406 173.016 54.2969C175.328 53.1406 176.609 52.5312 176.859 52.4688C177.172 52.4062 177.984 50.8438 179.297 47.7812C180.641 44.6875 181.312 42.8594 181.312 42.2969C181.312 42.0469 179.844 42.8125 176.906 44.5938C174 46.375 169.953 49 164.766 52.4688C158.484 56.6875 154.656 58.7969 153.281 58.7969C153.031 58.7969 152.641 58.7344 152.109 58.6094C151.391 58.3594 150.688 57.7812 150 56.875C149.344 55.9688 149.016 55.1406 149.016 54.3906C149.016 52.7344 150.688 49.4375 154.031 44.5C155.812 41.8125 156.703 40.2344 156.703 39.7656H156.609C155.984 39.7656 152.75 42.5938 146.906 48.25C143.844 51.1875 141.672 53.1406 140.391 54.1094C139.109 55.0469 138.094 55.5156 137.344 55.5156C136.438 55.5156 135.703 55.1094 135.141 54.2969L134.156 52.9375L135.141 51.1094C136.234 49.0469 138.562 46.2188 142.125 42.625C145.719 39 148.406 36.7656 150.188 35.9219C150.812 35.6094 151.344 35.4531 151.781 35.4531C152.25 35.4531 152.906 35.6094 153.75 35.9219C154.844 36.2344 155.516 36.4062 155.766 36.4375C156.141 36.4375 156.625 36.3438 157.219 36.1562C158.188 35.8438 159.078 35.9688 159.891 36.5312C160.734 37.0938 161.156 37.7031 161.156 38.3594C161.156 38.9219 160.031 40.9062 157.781 44.3125C153.938 49.875 152.016 53.4844 152.016 55.1406C152.016 56.0469 152.297 56.5 152.859 56.5C153.891 56.5 158.031 54.0938 165.281 49.2812C168.875 46.8438 173.25 44.0312 178.406 40.8438L183.609 37.6562L186.375 33.5312C189.656 28.4062 192.859 25.0781 195.984 23.5469ZM249.562 54.9531C250.531 53.9219 251.016 53.2812 251.016 53.0312C251.016 52.9688 250.953 52.9375 250.828 52.9375C250.578 52.9375 249.969 53.125 249 53.5C248.281 53.8125 247.312 54.6875 246.094 56.125C244.906 57.5312 243.922 58.9375 243.141 60.3438L243.047 60.5312L243.141 60.625C243.766 60.625 245.906 58.7344 249.562 54.9531ZM279.891 51.3906C277.453 51.0781 274 50.9219 269.531 50.9219C261.719 50.9219 257.562 51.1719 257.062 51.6719C254.438 54.2969 250.422 58.0625 245.016 62.9688C239.609 67.875 236.578 70.4844 235.922 70.7969C235.484 71.0469 234.953 70.8594 234.328 70.2344L233.438 69.3438L235.453 66.3906C235.766 65.8906 236.172 65.2656 236.672 64.5156C237.203 63.7656 237.812 62.9375 238.5 62.0312C239.219 61.0938 239.734 60.3906 240.047 59.9219C241.516 57.7344 242.266 56.5312 242.297 56.3125C242.297 56.25 242.266 56.2188 242.203 56.2188C241.703 56.2188 240.516 56.7969 238.641 57.9531C236.766 59.0781 235.125 60.2188 233.719 61.375C229.75 64.625 227.766 67.7031 227.766 70.6094C227.766 74.8906 231.031 77.1562 237.562 77.4062H238.828C249.203 77.4062 260.562 72.0625 272.906 61.375C274.625 59.9062 276.5 58.0625 278.531 55.8438C280.594 53.5938 281.625 52.2969 281.625 51.9531C281.625 51.7031 281.047 51.5156 279.891 51.3906ZM263.203 38.9219C262.766 38.9219 262.266 38.8906 261.703 38.8281C261.172 38.7656 260.844 38.7344 260.719 38.7344C260 38.7344 259 39.5312 257.719 41.125C253.031 46.375 250.703 49.3906 250.734 50.1719C250.797 50.2344 251.031 50.2344 251.438 50.1719C251.844 50.1094 252.406 50 253.125 49.8438C254.094 49.6562 254.875 49.3125 255.469 48.8125C256.094 48.3125 257.484 46.875 259.641 44.5C262.578 41.1875 264.047 39.4531 264.047 39.2969C264.047 39.0469 263.766 38.9219 263.203 38.9219ZM280.688 36.9062C279.469 36.0625 278.766 35.6406 278.578 35.6406C278.453 35.6406 276.75 36.125 273.469 37.0938L268.875 38.4531C265.812 41.7031 262.828 45.0625 259.922 48.5312L271.078 48.7188C278.516 48.8438 282.453 48.9688 282.891 49.0938H283.078C283.516 49.0938 283.906 48.6094 284.25 47.6406C284.625 46.6406 284.812 45.5 284.812 44.2188C284.812 42.5625 284.391 41.1094 283.547 39.8594C282.672 38.6094 281.719 37.625 280.688 36.9062ZM274.453 33.4375C273.609 32.875 272.938 33.0312 272.438 33.9062C272.125 34.4062 272.062 34.6719 272.25 34.7031C272.375 34.7031 272.844 34.5781 273.656 34.3281C274.5 33.9844 274.766 33.6875 274.453 33.4375ZM268.688 33.8125C268.75 33.6875 268.781 33.5312 268.781 33.3438C268.781 33.2188 268.688 33.1562 268.5 33.1562C267.938 33.1562 266.875 33.5469 265.312 34.3281C263.656 35.2344 262.828 35.8125 262.828 36.0625C262.828 36.3125 263.109 36.4375 263.672 36.4375C263.734 36.4375 263.875 36.4219 264.094 36.3906C264.344 36.3594 264.531 36.3438 264.656 36.3438C266.625 36 267.969 35.1562 268.688 33.8125ZM273.281 28.4688C274.25 27.25 274.641 26.6406 274.453 26.6406C274.266 26.6406 273.547 27.0625 272.297 27.9062C271.047 28.7188 270.219 29.3125 269.812 29.6875C269.75 29.9375 270.016 30.1094 270.609 30.2031C271.484 30.2031 272.375 29.625 273.281 28.4688ZM303.609 16.0938C303.172 15.7188 302.281 15.5156 300.938 15.4844C297.625 15.4844 293.906 16.3125 289.781 17.9688C287.344 18.9375 285.609 19.8125 284.578 20.5938C283.578 21.3438 281.859 23.0937 279.422 25.8438L275.016 30.7656L275.859 31.5156C276.578 32.1406 277.391 32.4688 278.297 32.5C279.266 32.5 280.578 32.1406 282.234 31.4219C286.828 29.5781 291.047 27.4531 294.891 25.0469C298.734 22.6406 301.422 20.4219 302.953 18.3906C303.578 17.5469 303.922 17.0156 303.984 16.7969C304.047 16.5781 303.922 16.3437 303.609 16.0938ZM290.391 9.25C291.547 7.84375 292.375 7.14062 292.875 7.14062C293.125 7.14062 293.406 7.29687 293.719 7.60938C293.969 7.85937 294.109 8.15625 294.141 8.5C294.141 9.125 293.469 10.2031 292.125 11.7344C290.906 13.0781 290.297 13.8906 290.297 14.1719H290.391C290.516 14.1719 290.719 14.1406 291 14.0781C291.281 13.9844 291.703 13.8594 292.266 13.7031C292.859 13.5469 293.375 13.4375 293.812 13.375C295.938 12.8125 297.922 12.5312 299.766 12.5312C301.297 12.5312 302.516 12.75 303.422 13.1875C304.266 13.625 305.031 14.2812 305.719 15.1562C306.438 16.0313 306.797 16.75 306.797 17.3125C306.797 18.2813 305.938 19.7031 304.219 21.5781C302.531 23.4219 300.438 25.1719 297.938 26.8281C296.781 27.6719 294.766 28.8125 291.891 30.25C289.016 31.6875 287.141 32.5625 286.266 32.875C285.703 33.0625 284.766 33.4062 283.453 33.9062L281.625 34.7969L283.547 37.1875C285.922 40.0625 287.109 42.6562 287.109 44.9688C287.109 45.0938 287.094 45.3125 287.062 45.625C287.031 45.9062 287.016 46.1406 287.016 46.3281L286.734 49.375L288.281 49.6562C288.844 49.7812 291.875 49.8438 297.375 49.8438C298.969 49.7812 300.703 49.75 302.578 49.75C304.172 49.75 305 49.9531 305.062 50.3594C305.125 50.7969 304.703 51.2656 303.797 51.7656C303.172 52.1406 301.766 52.3438 299.578 52.375C297.453 52.375 295.5 52.3438 293.719 52.2812L285.188 51.9531L283.359 54.4844C281.516 57.0469 278.594 60.0469 274.594 63.4844C270.594 66.8906 266.672 69.75 262.828 72.0625C258.297 74.8125 253.469 76.8281 248.344 78.1094C245.094 78.9531 242.016 79.3594 239.109 79.3281C234.359 79.3281 230.672 78.1094 228.047 75.6719C226.141 73.9531 225.188 72.1094 225.188 70.1406C225.188 67.5781 226.859 64.6562 230.203 61.375C234.234 57.4062 238.875 54.4688 244.125 52.5625C245.031 52.25 245.781 51.8281 246.375 51.2969C246.969 50.7344 247.844 49.6562 249 48.0625C251.562 44.8125 253.641 42.1875 255.234 40.1875C257.484 37.625 258.609 36.1094 258.609 35.6406C258.609 35.4531 259.656 34.5312 261.75 32.875C262.719 32.0938 264.156 30.9219 266.062 29.3594C268 27.7969 269.578 26.5469 270.797 25.6094C272.016 24.6406 273.516 23.5313 275.297 22.2812C277.078 21.0312 278.812 19.9531 280.5 19.0469C281.469 18.4844 282.188 18.0469 282.656 17.7344C283.125 17.3906 283.453 17.125 283.641 16.9375C283.828 16.75 284.156 16.3594 284.625 15.7656C285.125 15.1406 285.672 14.5313 286.266 13.9375C288.234 11.8437 289.609 10.2812 290.391 9.25ZM356.109 35.0781C355.984 34.7656 355.578 34.6094 354.891 34.6094C354.109 34.6094 353.109 34.7969 351.891 35.1719C350.297 35.6719 349.5 36.0625 349.5 36.3438C349.5 36.4688 349.625 36.6562 349.875 36.9062C350.312 37.3438 350.547 37.7656 350.578 38.1719C350.578 38.6094 349.484 40.1406 347.297 42.7656C346.859 43.2656 346.234 44.0156 345.422 45.0156C344.609 46.0156 343.906 46.8906 343.312 47.6406C342.719 48.3594 342.25 48.9062 341.906 49.2812C340.312 51.1875 339.516 52.4062 339.516 52.9375C339.516 53.0625 339.578 53.125 339.703 53.125C340.016 53.125 340.891 52.7188 342.328 51.9062C343.797 51.0625 344.938 50.3125 345.75 49.6562C348.375 47.5938 350.766 45.0938 352.922 42.1562C355.109 39.2188 356.203 37.0469 356.203 35.6406C356.203 35.3906 356.172 35.2031 356.109 35.0781ZM335.859 14.0781C337.578 12.1094 338.641 11.1094 339.047 11.0781C339.297 11.0781 339.641 11.3906 340.078 12.0156C340.547 12.6094 340.781 13.1094 340.781 13.5156C340.781 13.8906 337.328 17.5938 330.422 24.625C320.703 34.4688 313.844 41.8906 309.844 46.8906C309.406 47.4531 308.844 48.1719 308.156 49.0469C307.5 49.9219 307.141 50.3906 307.078 50.4531C306.703 50.8906 306.234 51.5781 305.672 52.5156C305.141 53.4219 304.719 54.0781 304.406 54.4844C302.625 56.9219 301.719 59.3438 301.688 61.75C301.688 62.6562 301.875 63.3125 302.25 63.7188C302.656 64.0938 303.109 64.2812 303.609 64.2812C304.516 64.2812 306.531 63.4688 309.656 61.8438C314.125 59.5312 320.328 55.4375 328.266 49.5625C330.891 47.6562 334.453 45.125 338.953 41.9688C342.266 39.7188 343.922 38.375 343.922 37.9375C343.922 36.9688 344.578 35.9688 345.891 34.9375C347.203 33.875 349.047 32.9688 351.422 32.2188C352.578 31.8438 353.469 31.6406 354.094 31.6094C354.594 31.6094 355.234 31.7812 356.016 32.125C357.609 32.9062 358.422 34.2812 358.453 36.25C358.453 37.2188 358.188 38.2969 357.656 39.4844C356 43.2031 353.094 47 348.938 50.875C344.781 54.75 341.609 56.6875 339.422 56.6875C338.984 56.6875 338.672 56.625 338.484 56.5C337.984 56.25 337.516 55.7344 337.078 54.9531C336.672 54.1719 336.469 53.4688 336.469 52.8438C336.469 51.875 336.688 51.0312 337.125 50.3125C337.562 49.5625 339.156 47.3906 341.906 43.7969L342.609 42.8594L341.719 43.3281C340.188 44.1719 335.906 47.1562 328.875 52.2812C321.125 58.0312 315.109 62.0938 310.828 64.4688C307.828 66.0625 305.641 66.8594 304.266 66.8594C303.172 66.8594 302.031 66.3125 300.844 65.2188C299.438 63.875 298.734 62.4375 298.734 60.9062C298.734 59.4375 299.344 57.5156 300.562 55.1406C301.406 53.4844 302.125 52.2031 302.719 51.2969C303.312 50.3906 304.5 48.7969 306.281 46.5156C310.812 40.5781 317.094 33.5312 325.125 25.375C331.844 18.4062 335.422 14.6406 335.859 14.0781ZM375.609 54.2031L376.266 52.8438C375.828 52.9688 375.125 53.2812 374.156 53.7812C373.188 54.25 372.672 54.5469 372.609 54.6719C372.484 54.9219 372.266 55.0469 371.953 55.0469C371.328 55.0469 369.625 55.7812 366.844 57.25C365.5 58.0312 364.578 58.4219 364.078 58.4219C363.703 58.4219 363.281 58.6406 362.812 59.0781C362.375 59.5156 361.578 60.0312 360.422 60.625C358.453 61.7188 355.828 63.5781 352.547 66.2031C350.234 68.0469 348.703 69.4844 347.953 70.5156C346.984 71.7969 346.375 72.5625 346.125 72.8125C345.562 73.5312 345.266 74.0156 345.234 74.2656C345.234 74.6406 345.047 74.8906 344.672 75.0156C344.422 75.0781 343.953 75.7812 343.266 77.125C342.547 78.4688 342.188 79.3594 342.188 79.7969C342.188 80.1719 342.094 80.375 341.906 80.4062C341.656 80.4062 341.406 80.9844 341.156 82.1406C340.875 83.3281 340.734 84.4688 340.734 85.5625V86.3594L340.922 88.1875L342.656 88.2812H342.938C345.188 88.2812 346.797 87.7344 347.766 86.6406C347.891 86.4531 348.469 86.0312 349.5 85.375C350.344 84.9375 351.5 84.125 352.969 82.9375C354.406 81.75 355.297 81.0312 355.641 80.7812C356.141 80.4688 357.078 79.4844 358.453 77.8281C359.828 76.2031 360.703 75.2656 361.078 75.0156C361.484 74.7656 362.328 73.7344 363.609 71.9219L366.281 68.5938C366.719 68.0938 367.609 66.8281 368.953 64.7969C370.297 62.7656 370.969 61.6562 370.969 61.4688C370.969 61.2812 371.172 61.0625 371.578 60.8125C371.891 60.625 372.5 59.8281 373.406 58.4219C374.344 57.0156 374.812 56.1719 374.812 55.8906C374.844 55.7969 375.109 55.2344 375.609 54.2031ZM375.984 39.4844C375.984 39.6094 375.141 40.0625 373.453 40.8438C371.797 41.5938 370.969 42.0156 370.969 42.1094C370.969 42.2969 370.594 42.6094 369.844 43.0469C369.469 43.2344 367.766 44.6719 364.734 47.3594C363.641 48.2031 363.359 48.625 363.891 48.625C364.203 48.625 364.922 48.2344 366.047 47.4531C367.172 46.6406 367.859 46.0312 368.109 45.625C368.297 45.3125 368.578 45.1562 368.953 45.1562C369.359 45.1562 369.625 45 369.75 44.6875C369.75 44.5625 370.328 44.1562 371.484 43.4688C372.672 42.75 373.266 42.3281 373.266 42.2031C373.266 41.9531 374.047 41.4688 375.609 40.75C377.078 40.0312 377.875 39.5156 378 39.2031C378.125 38.9531 378.031 38.8281 377.719 38.8281C376.562 38.9531 375.984 39.1719 375.984 39.4844ZM374.062 63.0156C373.938 63.0156 373.547 63.5156 372.891 64.5156C372.266 65.4844 371.844 65.9688 371.625 65.9688C371.438 65.9688 371.344 66.1406 371.344 66.4844C371.344 66.6719 371.125 67.0781 370.688 67.7031C370.25 68.2969 369.719 69 369.094 69.8125C368.5 70.5938 368.078 71.1719 367.828 71.5469C367.328 72.4531 366.875 73 366.469 73.1875C365.969 73.4375 365.719 73.75 365.719 74.125C365.719 74.5312 365.359 74.9219 364.641 75.2969C364.141 75.5469 363.375 76.25 362.344 77.4062C360.938 79.0625 359.078 80.8906 356.766 82.8906C354.141 85.3281 352.031 87.0156 350.438 87.9531C350.062 88.1406 349.516 88.4375 348.797 88.8438C348.047 89.2812 347.562 89.5312 347.344 89.5938C346.5 90.0312 344.969 90.2656 342.75 90.2969C341.281 90.2969 340.328 90.1562 339.891 89.875C338.422 89.0938 337.688 87.8594 337.688 86.1719C337.688 83.4219 338.328 80.9531 339.609 78.7656C340.109 77.8594 340.359 77.3125 340.359 77.125C340.359 76.625 341.156 75.2812 342.75 73.0938C344.344 70.9062 346.047 68.9219 347.859 67.1406C350.234 64.6406 351.578 63.3906 351.891 63.3906C352.078 63.3906 352.516 63.1094 353.203 62.5469C353.516 62.2969 354.219 61.8281 355.312 61.1406C356.406 60.4219 357.156 59.8594 357.562 59.4531C357.812 59.1406 358.625 58.7031 360 58.1406C361.375 57.5469 362.219 57.125 362.531 56.875C362.781 56.625 363.547 56.2188 364.828 55.6562C366.109 55.0625 366.875 54.6406 367.125 54.3906C367.312 54.2031 367.844 53.9531 368.719 53.6406C369.594 53.2969 370.406 52.9688 371.156 52.6562C371.938 52.3438 372.328 52.1094 372.328 51.9531C372.328 51.8906 373.172 51.5469 374.859 50.9219C376.578 50.2656 377.438 49.875 377.438 49.75C377.438 49.625 377.75 49.4375 378.375 49.1875C378.875 49.125 379.453 48.4844 380.109 47.2656C380.672 46.1094 381.078 45.5312 381.328 45.5312C381.609 45.5312 381.844 45.2188 382.031 44.5938C382.281 43.75 382.859 42.7812 383.766 41.6875C384.672 40.4688 385.109 39.6719 385.078 39.2969C385.078 39.1719 385.047 39.1094 384.984 39.1094C384.734 39.1094 382.219 40.4219 377.438 43.0469C376.469 43.5469 375.719 44.0156 375.188 44.4531C374.688 44.8594 373.984 45.2812 373.078 45.7188C372.109 46.2188 371.156 46.9531 370.219 47.9219C369.656 48.6406 369.203 49 368.859 49C368.547 49 368.297 49.1562 368.109 49.4688C368.047 49.5312 367.5 49.9375 366.469 50.6875C365.438 51.4062 364.922 51.8281 364.922 51.9531C364.922 52.1406 364.5 52.3906 363.656 52.7031C362.844 52.9844 362.188 53.125 361.688 53.125C360.594 53.125 360.047 52.3281 360.047 50.7344C360.047 49.1406 361.234 47.1875 363.609 44.875C365.016 43.4688 365.719 42.6094 365.719 42.2969C365.719 41.9531 365.844 41.7812 366.094 41.7812C366.656 41.7812 367.969 40.9531 370.031 39.2969C370.406 39.0469 371.078 38.6406 372.047 38.0781C372.891 37.7031 373.297 37.4062 373.266 37.1875C373.266 37.0625 374.484 36.6406 376.922 35.9219C377.422 35.7969 377.812 35.7344 378.094 35.7344C378.875 35.7344 379.641 35.9375 380.391 36.3438C380.891 36.5938 381.359 36.7188 381.797 36.7188C382.266 36.7188 382.859 36.5938 383.578 36.3438C384.609 35.9688 385.625 35.7656 386.625 35.7344C388.531 35.7344 389.5 36.4375 389.531 37.8438C389.531 37.9062 389.516 38.0156 389.484 38.1719C389.453 38.2969 389.438 38.3906 389.438 38.4531C389.312 39.2344 388.984 39.9688 388.453 40.6562C387.953 41.2812 387.703 41.6875 387.703 41.875C387.703 42.1875 387.25 42.875 386.344 43.9375C385.438 45 384.984 45.6562 384.984 45.9062L385.078 46.1406H385.172C385.484 46.1406 386.234 45.9531 387.422 45.5781C388.609 45.1719 389.344 44.8438 389.625 44.5938L390.844 44.0312C391.75 43.6562 392.562 43.2969 393.281 42.9531C394.031 42.5781 394.438 42.3281 394.5 42.2031C394.562 42.0469 395.016 41.6406 395.859 40.9844C396.734 40.2969 397.172 39.7969 397.172 39.4844C397.172 38.5781 397.469 38.4531 398.062 39.1094C398.125 39.2344 398.219 39.3906 398.344 39.5781C398.719 40.0781 398.688 40.7812 398.25 41.6875C397.219 43.5938 395.141 45.0781 392.016 46.1406C390.672 46.6406 390 46.9531 390 47.0781C390 47.1406 389.391 47.4219 388.172 47.9219C386.766 48.4219 385.234 49.0938 383.578 49.9375C382.359 50.5 381.547 50.9844 381.141 51.3906C380.766 51.7656 380.359 52.4375 379.922 53.4062C379.203 54.75 378.75 55.4219 378.562 55.4219C378.375 55.4219 378.047 55.8906 377.578 56.8281C377.141 57.7656 376.953 58.3281 377.016 58.5156C377.016 58.7031 376.922 58.7969 376.734 58.7969C376.547 58.7969 376.062 59.5 375.281 60.9062C374.531 62.3125 374.125 63.0156 374.062 63.0156Z" fill="white"/>
</svg>
